<svg width="32" height="32" viewBox="0 0 32 32" fill="none" xmlns="http://www.w3.org/2000/svg">
  <!-- GLP Block Logo (favicon) -->
  <g transform="translate(2, 2)">
    <!-- Letter G blocks -->
    <rect x="0" y="0" width="4" height="4" fill="#8B5CF6"/>
    <rect x="4" y="0" width="4" height="4" fill="#7C3AED"/>
    <rect x="8" y="0" width="4" height="4" fill="#6D28D9"/>
    <rect x="0" y="4" width="4" height="4" fill="#8B5CF6"/>
    <rect x="0" y="8" width="4" height="4" fill="#8B5CF6"/>
    <rect x="0" y="12" width="4" height="4" fill="#8B5CF6"/>
    <rect x="4" y="12" width="4" height="4" fill="#7C3AED"/>
    <rect x="8" y="12" width="4" height="4" fill="#6D28D9"/>
    <rect x="8" y="8" width="4" height="4" fill="#6D28D9"/>
    <rect x="8" y="4" width="4" height="4" fill="#6D28D9"/>
    
    <!-- Letter L blocks -->
    <rect x="16" y="0" width="4" height="4" fill="#5B21B6"/>
    <rect x="20" y="0" width="4" height="4" fill="#4C1D95"/>
    <rect x="24" y="0" width="4" height="4" fill="#3B82F6"/>
    <rect x="16" y="4" width="4" height="4" fill="#5B21B6"/>
    <rect x="16" y="8" width="4" height="4" fill="#5B21B6"/>
    <rect x="16" y="12" width="4" height="4" fill="#5B21B6"/>
    <rect x="20" y="12" width="4" height="4" fill="#4C1D95"/>
    <rect x="24" y="12" width="4" height="4" fill="#3B82F6"/>
    
    <!-- Letter P blocks -->
    <rect x="0" y="18" width="4" height="4" fill="#0EA5E9"/>
    <rect x="4" y="18" width="4" height="4" fill="#0284C7"/>
    <rect x="8" y="18" width="4" height="4" fill="#0369A1"/>
    <rect x="0" y="22" width="4" height="4" fill="#0EA5E9"/>
    <rect x="0" y="26" width="4" height="4" fill="#0EA5E9"/>
    <rect x="0" y="30" width="4" height="4" fill="#0EA5E9"/>
    <rect x="4" y="22" width="4" height="4" fill="#0284C7"/>
    <rect x="8" y="22" width="4" height="4" fill="#0369A1"/>
    <rect x="4" y="26" width="4" height="4" fill="#0284C7"/>
    <rect x="8" y="26" width="4" height="4" fill="#0369A1"/>
    
    <!-- Small connecting line -->
    <line x1="2" y1="16" x2="12" y2="16" stroke="url(#faviconLineGradient)" stroke-width="1"/>
    <circle cx="2" cy="16" r="1" fill="#8B5CF6"/>
    <circle cx="12" cy="16" r="1" fill="#0EA5E9"/>
  </g>
  
  <!-- Gradient definitions -->
  <defs>
    <linearGradient id="faviconLineGradient" x1="0%" y1="0%" x2="100%" y2="0%">
      <stop offset="0%" style="stop-color:#8B5CF6;stop-opacity:1" />
      <stop offset="50%" style="stop-color:#3B82F6;stop-opacity:1" />
      <stop offset="100%" style="stop-color:#0EA5E9;stop-opacity:1" />
    </linearGradient>
  </defs>
</svg>
