<svg width="400" height="120" viewBox="0 0 400 120" fill="none" xmlns="http://www.w3.org/2000/svg">
  <!-- Background -->
  <rect width="400" height="120" fill="#0F0F23"/>
  
  <!-- GLPB Pixelated Logo -->
  <g transform="translate(50, 20)">
    <!-- Letter G blocks -->
    <rect x="0" y="0" width="16" height="16" fill="#8B5CF6"/>
    <rect x="16" y="0" width="16" height="16" fill="#7C3AED"/>
    <rect x="32" y="0" width="16" height="16" fill="#6D28D9"/>
    <rect x="0" y="16" width="16" height="16" fill="#8B5CF6"/>
    <rect x="0" y="32" width="16" height="16" fill="#8B5CF6"/>
    <rect x="0" y="48" width="16" height="16" fill="#8B5CF6"/>
    <rect x="16" y="48" width="16" height="16" fill="#7C3AED"/>
    <rect x="32" y="48" width="16" height="16" fill="#6D28D9"/>
    <rect x="32" y="32" width="16" height="16" fill="#6D28D9"/>
    <rect x="32" y="16" width="16" height="16" fill="#6D28D9"/>
    
    <!-- Letter L blocks -->
    <rect x="64" y="0" width="16" height="16" fill="#5B21B6"/>
    <rect x="80" y="0" width="16" height="16" fill="#4C1D95"/>
    <rect x="96" y="0" width="16" height="16" fill="#3B82F6"/>
    <rect x="64" y="16" width="16" height="16" fill="#5B21B6"/>
    <rect x="64" y="32" width="16" height="16" fill="#5B21B6"/>
    <rect x="64" y="48" width="16" height="16" fill="#5B21B6"/>
    <rect x="80" y="48" width="16" height="16" fill="#4C1D95"/>
    <rect x="96" y="48" width="16" height="16" fill="#3B82F6"/>
    
    <!-- Letter P blocks -->
    <rect x="128" y="0" width="16" height="16" fill="#0EA5E9"/>
    <rect x="144" y="0" width="16" height="16" fill="#0284C7"/>
    <rect x="160" y="0" width="16" height="16" fill="#0369A1"/>
    <rect x="128" y="16" width="16" height="16" fill="#0EA5E9"/>
    <rect x="128" y="32" width="16" height="16" fill="#0EA5E9"/>
    <rect x="128" y="48" width="16" height="16" fill="#0EA5E9"/>
    <rect x="144" y="16" width="16" height="16" fill="#0284C7"/>
    <rect x="160" y="16" width="16" height="16" fill="#0369A1"/>
    <rect x="144" y="32" width="16" height="16" fill="#0284C7"/>
    <rect x="160" y="32" width="16" height="16" fill="#0369A1"/>
    
    <!-- Letter B blocks -->
    <rect x="192" y="0" width="16" height="16" fill="#10B981"/>
    <rect x="208" y="0" width="16" height="16" fill="#059669"/>
    <rect x="224" y="0" width="16" height="16" fill="#047857"/>
    <rect x="192" y="16" width="16" height="16" fill="#10B981"/>
    <rect x="192" y="32" width="16" height="16" fill="#10B981"/>
    <rect x="192" y="48" width="16" height="16" fill="#10B981"/>
    <rect x="208" y="16" width="16" height="16" fill="#059669"/>
    <rect x="224" y="16" width="16" height="16" fill="#047857"/>
    <rect x="208" y="32" width="16" height="16" fill="#059669"/>
    <rect x="224" y="32" width="16" height="16" fill="#047857"/>
    
    <!-- Circuit connections -->
    <line x1="8" y1="64" x2="8" y2="70" stroke="url(#circuitGradient)" stroke-width="3"/>
    <circle cx="8" cy="70" r="4" fill="#8B5CF6"/>
    <line x1="8" y1="70" x2="16" y2="76" stroke="url(#circuitGradient)" stroke-width="3"/>
    <circle cx="16" cy="76" r="4" fill="#0EA5E9"/>
    <line x1="16" y1="76" x2="80" y2="64" stroke="url(#circuitGradient)" stroke-width="3"/>
    <circle cx="80" cy="64" r="4" fill="#0EA5E9"/>
    <line x1="80" y1="64" x2="104" y2="64" stroke="url(#circuitGradient)" stroke-width="3"/>
    <circle cx="104" cy="64" r="4" fill="#0EA5E9"/>
    <line x1="104" y1="64" x2="128" y2="64" stroke="url(#circuitGradient)" stroke-width="3"/>
    <circle cx="128" cy="64" r="4" fill="#0EA5E9"/>
    <line x1="128" y1="64" x2="152" y2="64" stroke="url(#circuitGradient)" stroke-width="3"/>
    <circle cx="152" cy="64" r="4" fill="#10B981"/>
    <line x1="152" y1="64" x2="176" y2="64" stroke="url(#circuitGradient)" stroke-width="3"/>
    <circle cx="176" cy="64" r="4" fill="#10B981"/>
    
    <!-- Small trailing pixels -->
    <rect x="4" y="80" width="4" height="4" fill="#8B5CF6"/>
    <rect x="8" y="84" width="4" height="4" fill="#8B5CF6"/>
    <rect x="12" y="88" width="4" height="4" fill="#8B5CF6"/>
    <rect x="12" y="88" width="4" height="4" fill="#0EA5E9"/>
    <rect x="16" y="92" width="4" height="4" fill="#0EA5E9"/>
    <rect x="20" y="96" width="4" height="4" fill="#0EA5E9"/>
  </g>
  
  <!-- Text -->
  <text x="50" y="100" font-family="Arial, sans-serif" font-size="20" font-weight="bold" fill="white">GL PeerBajaj</text>
  
  <!-- Gradient definitions -->
  <defs>
    <linearGradient id="circuitGradient" x1="0%" y1="0%" x2="100%" y2="0%">
      <stop offset="0%" style="stop-color:#8B5CF6;stop-opacity:1" />
      <stop offset="25%" style="stop-color:#3B82F6;stop-opacity:1" />
      <stop offset="50%" style="stop-color:#0EA5E9;stop-opacity:1" />
      <stop offset="75%" style="stop-color:#10B981;stop-opacity:1" />
      <stop offset="100%" style="stop-color:#059669;stop-opacity:1" />
    </linearGradient>
  </defs>
</svg>